<?xml version="1.0" encoding="UTF-8" standalone="no"?>
<!-- Created with Inkscape (http://www.inkscape.org/) -->

<svg
   version="1.1"
   id="svg1"
   width="208"
   height="180"
   viewBox="0 0 208 180"
   sodipodi:docname="arrow-up.svg"
   inkscape:version="1.3 (0e150ed, 2023-07-21)"
   inkscape:export-filename="arrow-up.webp"
   inkscape:export-xdpi="96"
   inkscape:export-ydpi="96"
   xmlns:inkscape="http://www.inkscape.org/namespaces/inkscape"
   xmlns:sodipodi="http://sodipodi.sourceforge.net/DTD/sodipodi-0.dtd"
   xmlns="http://www.w3.org/2000/svg"
   xmlns:svg="http://www.w3.org/2000/svg">
  <defs
     id="defs1" />
  <sodipodi:namedview
     id="namedview1"
     pagecolor="#ffffff"
     bordercolor="#000000"
     borderopacity="0.25"
     inkscape:showpageshadow="2"
     inkscape:pageopacity="0.0"
     inkscape:pagecheckerboard="0"
     inkscape:deskcolor="#d1d1d1"
     inkscape:zoom="2.218955"
     inkscape:cx="94.639144"
     inkscape:cy="94.188481"
     inkscape:window-width="1440"
     inkscape:window-height="791"
     inkscape:window-x="0"
     inkscape:window-y="25"
     inkscape:window-maximized="0"
     inkscape:current-layer="g1" />
  <g
     inkscape:groupmode="layer"
     inkscape:label="Image"
     id="g1">
    <path
       style="fill:#ff000d;fill-opacity:1;stroke:none;stroke-width:3.59031;stroke-linecap:round;stroke-linejoin:round;paint-order:stroke fill markers"
       d="m 102.15522,162.24614 c -1.78199,-0.54732 -3.688792,-2.4816 -4.224441,-4.28532 -0.357132,-1.2026 -0.371712,-7.94474 -0.133168,-61.580443 0.231026,-51.945295 0.321893,-60.424404 0.660605,-61.643418 0.704126,-2.534121 3.668854,-4.787546 6.298754,-4.787546 1.49689,0 3.38972,0.85781 4.63032,2.098406 2.26905,2.26905 2.10141,-3.708733 1.80028,64.194975 -0.23033,51.940186 -0.32116,60.427596 -0.65971,61.646426 -0.53649,1.93144 -2.38097,3.79159 -4.33507,4.37189 -1.68955,0.50174 -2.36335,0.49924 -4.03757,-0.015 z"
       id="path2" />
    <path
       style="fill:#ff000d;fill-opacity:1;stroke:none;stroke-width:13.6063;stroke-linecap:round;stroke-linejoin:round;paint-order:stroke fill markers"
       d="M 72,71.078836 139.02335,3"
       id="path3-1" />
    <path
       style="fill:#ff000d;fill-opacity:1;stroke:none;stroke-width:13.6063;stroke-linecap:round;stroke-linejoin:round;paint-order:stroke fill markers"
       d="M 27.442632,97.896312 93.146625,33.247805"
       id="path6" />
    <path
       style="fill:#ff000d;fill-opacity:1;stroke:none;stroke-width:3.59031;stroke-linecap:round;stroke-linejoin:round;stroke-opacity:1;paint-order:stroke fill markers"
       d="m 36.978966,106.3202 c -1.871542,-0.59646 -3.702503,-2.51282 -4.271763,-4.471 -0.500622,-1.72208 -0.378718,-3.102837 0.42052,-4.763036 0.365182,-0.75857 9.363148,-9.710157 30.63505,-30.477157 39.553747,-38.614902 37.083287,-36.279302 38.949937,-36.823668 3.67537,-1.071833 7.48157,1.306504 8.28609,5.177632 0.25267,1.215765 0.22872,1.708232 -0.14757,3.034521 -0.53442,1.883594 2.50828,-1.181914 -39.417178,39.712655 -17.920158,17.47953 -28.686855,27.793933 -29.409202,28.173763 -1.497706,0.78755 -3.421724,0.95391 -5.045884,0.43629 z"
       id="path8" />
    <path
       style="fill:#ff000d;fill-opacity:1;stroke:none;stroke-width:3.59031;stroke-linecap:round;stroke-linejoin:round;stroke-opacity:1;paint-order:stroke fill markers"
       d="m 172.66951,105.9877 c 1.87154,-0.59646 3.7025,-2.51282 4.27176,-4.471 0.50063,-1.722082 0.37872,-3.102842 -0.42052,-4.763042 -0.36518,-0.75857 -9.36314,-9.710156 -30.63505,-30.477156 C 106.33195,27.6616 108.80241,29.9972 106.93576,29.452834 c -3.67537,-1.071833 -7.481569,1.306504 -8.286089,5.177632 -0.25267,1.215765 -0.22872,1.708232 0.14757,3.034521 0.53442,1.883594 -2.50828,-1.181914 39.417179,39.712655 17.92016,17.479526 28.68686,27.793938 29.40921,28.173768 1.4977,0.78755 3.42172,0.95391 5.04588,0.43629 z"
       id="path8-2" />
  </g>
</svg>
