<?xml version="1.0" encoding="UTF-8" standalone="no"?>
<!-- Created with Inkscape (http://www.inkscape.org/) -->

<svg
   width="38.475998mm"
   height="93.554436mm"
   viewBox="0 0 38.475998 93.554438"
   version="1.1"
   id="svg1"
   inkscape:export-filename="localisation_2.png"
   inkscape:export-xdpi="96"
   inkscape:export-ydpi="96"
   sodipodi:docname="localisation.svg"
   xmlns:inkscape="http://www.inkscape.org/namespaces/inkscape"
   xmlns:sodipodi="http://sodipodi.sourceforge.net/DTD/sodipodi-0.dtd"
   xmlns="http://www.w3.org/2000/svg"
   xmlns:svg="http://www.w3.org/2000/svg">
  <sodipodi:namedview
     id="namedview1"
     pagecolor="#ffffff"
     bordercolor="#000000"
     borderopacity="0.25"
     inkscape:showpageshadow="2"
     inkscape:pageopacity="0.0"
     inkscape:pagecheckerboard="0"
     inkscape:deskcolor="#d1d1d1"
     inkscape:document-units="mm"
     showguides="true">
    <sodipodi:guide
       position="-12.45892,254.9354"
       orientation="0,-1"
       id="guide3"
       inkscape:locked="false" />
    <sodipodi:guide
       position="-33.485683,280.90963"
       orientation="1,0"
       id="guide4"
       inkscape:locked="false" />
    <sodipodi:guide
       position="8.9801367,281.94036"
       orientation="1,0"
       id="guide5"
       inkscape:locked="false" />
  </sodipodi:namedview>
  <defs
     id="defs1" />
  <g
     inkscape:groupmode="layer"
     id="layer2"
     inkscape:label="Calque 2"
     style="display:inline;fill:#000000;fill-opacity:1;stroke:none"
     transform="translate(-105.22405,-71.727286)">
    <g
       id="g5"
       transform="matrix(0.72431425,0,0,1.0773161,57.417883,36.376427)"
       style="fill:none;stroke:none">
      <path
         style="fill:none;fill-opacity:1;stroke:none;stroke-width:15.044;stroke-linecap:round;stroke-linejoin:round;paint-order:markers fill stroke"
         d="m 92.213838,33.762958 c 0,0 14.891642,-1.41214 20.540202,23.107726 5.64855,24.519868 -20.668577,51.478886 -20.668577,51.478886 z"
         id="path2" />
      <path
         style="fill:none;fill-opacity:1;stroke:none;stroke-width:15.044;stroke-linecap:round;stroke-linejoin:round;paint-order:markers fill stroke"
         d="m 93.694948,33.764526 c 0,0 -14.891646,-1.41214 -20.540206,23.107726 -5.64855,24.519868 20.668581,51.478888 20.668581,51.478888 z"
         id="path2-2" />
    </g>
    <path
       style="fill:#000000;fill-opacity:1;stroke:#000000;stroke-width:7.902;stroke-linecap:round;stroke-linejoin:round;stroke-dasharray:none;stroke-opacity:1;paint-order:markers fill stroke"
       d="m 109.17505,161.33072 h 17.79941 12.77459"
       id="path5"
       sodipodi:nodetypes="ccc" />
  </g>
  <g
     inkscape:groupmode="layer"
     id="layer3"
     inkscape:label="Calque 3"
     transform="translate(-106.97325,-78.432538)"
     style="display:inline;fill:#ffffff;fill-opacity:0">
    <path
       style="fill:#000000;fill-opacity:0;stroke:#000000;stroke-width:6.37391;stroke-linecap:round;stroke-linejoin:round;stroke-opacity:1;paint-order:markers fill stroke"
       d="m 125.42198,155.61355 c -4.79792,-9.50478 -8.49485,-20.15882 -10.3051,-29.69794 -1.53506,-8.08891 -1.75017,-15.35182 -0.66501,-22.45236 1.39228,-9.109986 3.56581,-15.364072 6.57711,-18.924824 1.43731,-1.699581 3.24062,-2.815057 4.55089,-2.815057 h 0.50366 c -0.0675,-0.106397 -0.0721,-0.20996 0.0862,0 h 0.51341 c 1.45587,0 3.4169,1.298376 4.97365,3.292991 2.80076,3.588509 4.97925,10.171161 6.22725,18.81662 0.51624,3.57619 0.56036,4.24998 0.56166,8.57767 0.001,3.71883 -0.0151,4.15294 -0.23568,6.32169 -0.7348,7.22393 -2.48457,14.76645 -5.22362,22.51692 -1.75539,4.96703 -4.42922,11.19031 -6.40415,14.90551 l -0.455,0.85593 z"
       id="path6"
       sodipodi:nodetypes="sccssccsssccsscs" />
    <path
       style="fill:#000000;fill-opacity:1;stroke:none;stroke-width:14.3917;stroke-linecap:round;stroke-linejoin:round;stroke-dasharray:none;paint-order:markers fill stroke"
       d="m 126.2727,153.84303 c -1.22206,-2.13344 -5.28619,-12.48286 -6.70196,-17.06672 -3.64144,-11.78991 -4.79114,-22.93597 -3.33706,-32.35205 0.94287,-6.105654 2.72945,-12.51592 4.51076,-16.184772 1.43889,-2.963534 4.59426,-6.350135 5.91657,-6.350135 3.79615,0 8.14925,8.679413 10.34095,20.618247 1.2601,6.86415 0.82554,18.91619 -0.95625,26.52109 -1.89845,8.10281 -4.87735,16.67366 -8.1243,23.37503 -1.0069,2.07815 -1.19081,2.23871 -1.64871,1.43931 z"
       id="path4" />
  </g>
</svg>
